<?xml version="1.0" encoding="UTF-8"?>
<svg version="1.1" xmlns="http://www.w3.org/2000/svg" width="512" height="512">
<path d="M0 0 C0.80588448 -0.00205263 1.61176896 -0.00410527 2.44207418 -0.0062201 C5.15948885 -0.01190285 7.87685303 -0.01043128 10.59427261 -0.00901413 C12.55542886 -0.01159703 14.51658458 -0.01460998 16.47773957 -0.01801753 C21.88040903 -0.02609954 27.28306521 -0.02787777 32.68573999 -0.028615 C38.50728494 -0.03046346 44.32882297 -0.03800972 50.15036392 -0.04475021 C62.88579431 -0.05834237 75.62122155 -0.06435957 88.35665798 -0.06876087 C96.30541361 -0.07152168 104.25416802 -0.07575873 112.20292282 -0.08026505 C134.20141268 -0.09245863 156.1999016 -0.10279331 178.19839478 -0.10614014 C179.62105132 -0.10636177 181.04370786 -0.10658355 182.4663644 -0.10680549 C183.89246457 -0.10702613 185.31856474 -0.10724661 186.74466491 -0.10746694 C189.6056873 -0.10790949 192.46670969 -0.1083566 195.32773209 -0.10880661 C196.03709959 -0.108916 196.74646709 -0.10902539 197.47733058 -0.1091381 C220.48155596 -0.11276919 243.48574984 -0.12869127 266.48996316 -0.15199697 C290.80883501 -0.17658954 315.12768885 -0.1903127 339.4465735 -0.19150805 C352.70421528 -0.19235963 365.96181755 -0.19819819 379.21944809 -0.21632767 C390.50736362 -0.23170898 401.79522515 -0.23686074 413.08314916 -0.22858956 C418.84406677 -0.22467615 424.60487557 -0.22564641 430.36577988 -0.23964691 C435.63857438 -0.25234419 440.91117783 -0.25122504 446.18397191 -0.2390562 C448.09246301 -0.23709196 450.00096745 -0.24021101 451.90943977 -0.24890056 C454.50292843 -0.25996236 457.09573921 -0.25252628 459.68920898 -0.24050903 C460.43071792 -0.24810423 461.17222685 -0.25569942 461.93620574 -0.26352477 C470.01847749 -0.18263843 476.33010804 2.36524903 482.09628677 8.13142776 C487.14301188 14.70257965 486.6594446 21.28467524 486.60422134 29.29611588 C486.60883292 30.74981718 486.61518757 32.20351383 486.62313032 33.65720075 C486.63981148 37.64328302 486.63158297 41.62898167 486.61918545 45.61506522 C486.61013235 49.91710026 486.62410591 54.2190695 486.63510513 58.52109146 C486.65289172 66.94507327 486.64904989 75.36891252 486.63745457 83.79289991 C486.62842167 90.63861309 486.62719563 97.48428631 486.63154984 104.33000374 C486.63216277 105.30425013 486.6327757 106.27849652 486.63340721 107.28226553 C486.6346861 109.26140441 486.63598295 111.24054329 486.63729757 113.21968215 C486.64870362 131.7777399 486.63558895 150.33571862 486.61409611 168.89376342 C486.59622229 184.82011102 486.59933152 200.74634202 486.61777115 216.67268753 C486.63917256 235.16580753 486.64760794 253.65885827 486.63532209 272.15198892 C486.63404789 274.12354846 486.63279041 276.095108 486.63154984 278.06666756 C486.63093273 279.03672518 486.63031563 280.00678281 486.62967983 281.00623612 C486.62622495 287.84485412 486.63205818 294.68342822 486.64146805 301.52203941 C486.65268118 309.85434175 486.64966231 318.18649334 486.62834507 326.51877839 C486.61782584 330.77068923 486.61372766 335.02234863 486.62694168 339.27425766 C486.6388533 343.16590793 486.63232377 347.0570735 486.61103147 350.94867974 C486.60656017 352.3570422 486.60884359 353.76544554 486.61853462 355.17378176 C486.70102707 368.15692708 486.70102707 368.15692708 482.09628677 373.13142776 C481.56648209 373.72310745 481.0366774 374.31478714 480.49081802 374.92439651 C471.28654067 383.03779655 460.91659859 382.55358758 449.28549576 382.47200394 C447.58960866 382.47115666 445.89372047 382.47163477 444.19783401 382.47333145 C439.61577092 382.4741889 435.03394551 382.45660384 430.45193744 382.43560958 C425.6553448 382.4168009 420.85874617 382.41508904 416.06212234 382.41153336 C406.98879895 382.40222518 397.91558455 382.37762805 388.84230906 382.34748489 C378.50857595 382.31390261 368.17483751 382.29744525 357.84106338 382.28239858 C336.59273024 382.25107736 315.34454644 382.19608067 294.09628677 382.13142776 C299.54128677 397.97142776 299.54128677 397.97142776 305.09628677 414.13142776 C314.98284093 414.3409941 314.98284093 414.3409941 324.86996841 414.51936722 C326.11125504 414.55248001 327.35254166 414.5855928 328.63144302 414.61970901 C329.89351578 414.6458931 331.15558853 414.67207718 332.45590591 414.69905472 C336.64901217 415.19707572 339.35648204 416.20711376 343.09628677 418.13142776 C345.29039884 422.5196519 344.405801 428.37842654 344.44638443 433.25227737 C344.46292681 434.70816935 344.49019513 436.16398067 344.52841568 437.61946487 C344.58336801 439.72413899 344.60508293 441.82691283 344.61972427 443.93220901 C344.63954361 445.19202591 344.65936295 446.4518428 344.67978287 447.74983597 C343.9145111 452.18489002 342.64212923 453.39430113 339.09628677 456.13142776 C336.14464378 456.84980299 333.27895594 456.80700291 330.25253677 456.76634598 C329.36157806 456.77414593 328.47061935 456.78194588 327.5526619 456.7899822 C324.56678307 456.80992818 321.58217509 456.79412733 318.59628677 456.77840042 C316.45589834 456.78517537 314.31551574 456.7940778 312.1751442 456.80495071 C306.3610953 456.82776498 300.54748951 456.81889868 294.73343277 456.80305529 C288.65254893 456.79040745 282.57170334 456.8021333 276.49081802 456.80998611 C266.27850906 456.8190859 256.06638081 456.80708599 245.85409927 456.78328323 C234.04274895 456.7560715 222.23183013 456.76488542 210.42049026 456.79241526 C200.2844765 456.81509582 190.14859274 456.81831152 180.0125618 456.80522192 C173.95657654 456.79742168 167.9007942 456.79640175 161.84482193 456.81290436 C156.15163318 456.82733435 150.45900145 456.8173537 144.76587296 456.78843307 C142.67487895 456.78181448 140.58383817 456.78373307 138.4928627 456.7947464 C135.64128518 456.80838258 132.79149966 456.79130929 129.94003677 456.76634598 C128.69465889 456.78307639 128.69465889 456.78307639 127.42412186 456.80014479 C123.18031383 456.72793109 121.5542261 456.48545685 118.08200455 453.80111122 C115.51372257 450.34820366 115.47822737 448.27849087 115.50253677 444.00252151 C115.50249649 443.33100555 115.50245621 442.65948959 115.5024147 441.96762466 C115.50775335 440.55476341 115.5252658 439.14190125 115.55429459 437.72932816 C115.59623833 435.5714202 115.59535315 433.41662881 115.58847427 431.25838089 C115.66746811 420.89036502 115.66746811 420.89036502 117.43808365 417.75667191 C120.83380858 414.42844151 125.14498808 414.92049179 129.60800552 414.81502151 C130.25370499 414.79637039 130.89940445 414.77771927 131.56467056 414.75850296 C133.97090678 414.69033403 136.3773626 414.6301032 138.78378677 414.56892776 C144.16691177 414.42455276 149.55003677 414.28017776 155.09628677 414.13142776 C158.72628677 403.57142776 162.35628677 393.01142776 166.09628677 382.13142776 C160.84738541 382.12731888 155.59848404 382.12320999 150.19052505 382.11897659 C132.84790677 382.10177906 115.50543545 382.05752865 98.16290855 381.9993372 C87.64816478 381.96471622 77.13355172 381.93933546 66.61874771 381.93587112 C57.4517038 381.93282722 48.28489284 381.9122793 39.11793888 381.87090319 C34.26615593 381.84961031 29.41470388 381.83695351 24.56287384 381.84527397 C19.99085742 381.8528376 15.41951014 381.83689775 10.8476162 381.80336761 C9.17477706 381.79516213 7.50187103 381.79535148 5.82903862 381.80483055 C-3.95584956 381.85476204 -12.93762526 381.66345076 -20.53574562 374.6181345 C-24.64237111 369.9674309 -26.1521221 366.32444272 -26.16656876 360.18267918 C-26.17809219 358.34505055 -26.17809219 358.34505055 -26.18984842 356.47029811 C-26.18828795 355.10874999 -26.18653038 353.74720209 -26.18459702 352.38565445 C-26.18976447 350.94080831 -26.19579083 349.49596502 -26.20260382 348.05112571 C-26.21874887 344.0755718 -26.22232323 340.10009011 -26.22379875 336.12450731 C-26.22749903 331.83872881 -26.24259334 327.55298782 -26.25606918 323.26723099 C-26.2832409 313.89320079 -26.29528617 304.5191877 -26.3040905 295.14512467 C-26.30961475 289.29223979 -26.31808938 283.43936151 -26.32709885 277.58648109 C-26.35148533 261.38267844 -26.37208342 245.17888108 -26.37884903 228.97506046 C-26.37928816 227.93783346 -26.37972729 226.90060645 -26.38017973 225.83194832 C-26.38061629 224.79223311 -26.38105284 223.7525179 -26.38150263 222.68129617 C-26.38238956 220.57442271 -26.38328269 218.46754926 -26.38418198 216.36067581 C-26.38462484 215.31559283 -26.3850677 214.27050984 -26.38552397 213.19375768 C-26.39341942 196.26094645 -26.42832528 179.3283074 -26.47490102 162.39556269 C-26.52232983 145.01240496 -26.54725282 127.62933362 -26.54958487 110.24611014 C-26.55141835 100.48548012 -26.56292214 90.72507439 -26.59922409 80.96450615 C-26.63002872 72.6526852 -26.64026579 64.34115784 -26.62374789 56.02929065 C-26.6159353 51.78904366 -26.61778977 47.54938785 -26.64586258 43.30921364 C-26.67134642 39.42451908 -26.66894354 35.54085969 -26.64468116 31.65616652 C-26.64076783 30.25370273 -26.64692202 28.85116555 -26.66436988 27.44880483 C-26.76480544 18.82797304 -26.06009586 12.53069563 -19.90371323 6.13142776 C-13.3778113 1.05345326 -8.20182908 -0.01932802 0 0 Z M187.09628677 382.13142776 C182.47378514 393.22543169 178.74034122 404.67868523 175.09628677 416.13142776 C211.39628677 416.13142776 247.69628677 416.13142776 285.09628677 416.13142776 C281.96210795 404.63943873 278.00952993 393.38200183 274.09628677 382.13142776 C245.38628677 382.13142776 216.67628677 382.13142776 187.09628677 382.13142776 Z " fill="#3932A4" transform="translate(25.90371322631836,27.868572235107422)"/>
<path d="M0 0 C0.80588448 -0.00205263 1.61176896 -0.00410527 2.44207418 -0.0062201 C5.15948885 -0.01190285 7.87685303 -0.01043128 10.59427261 -0.00901413 C12.55542886 -0.01159703 14.51658458 -0.01460998 16.47773957 -0.01801753 C21.88040903 -0.02609954 27.28306521 -0.02787777 32.68573999 -0.028615 C38.50728494 -0.03046346 44.32882297 -0.03800972 50.15036392 -0.04475021 C62.88579431 -0.05834237 75.62122155 -0.06435957 88.35665798 -0.06876087 C96.30541361 -0.07152168 104.25416802 -0.07575873 112.20292282 -0.08026505 C134.20141268 -0.09245863 156.1999016 -0.10279331 178.19839478 -0.10614014 C179.62105132 -0.10636177 181.04370786 -0.10658355 182.4663644 -0.10680549 C183.89246457 -0.10702613 185.31856474 -0.10724661 186.74466491 -0.10746694 C189.6056873 -0.10790949 192.46670969 -0.1083566 195.32773209 -0.10880661 C196.03709959 -0.108916 196.74646709 -0.10902539 197.47733058 -0.1091381 C220.48155596 -0.11276919 243.48574984 -0.12869127 266.48996316 -0.15199697 C290.80883501 -0.17658954 315.12768885 -0.1903127 339.4465735 -0.19150805 C352.70421528 -0.19235963 365.96181755 -0.19819819 379.21944809 -0.21632767 C390.50736362 -0.23170898 401.79522515 -0.23686074 413.08314916 -0.22858956 C418.84406677 -0.22467615 424.60487557 -0.22564641 430.36577988 -0.23964691 C435.63857438 -0.25234419 440.91117783 -0.25122504 446.18397191 -0.2390562 C448.09246301 -0.23709196 450.00096745 -0.24021101 451.90943977 -0.24890056 C454.50292843 -0.25996236 457.09573921 -0.25252628 459.68920898 -0.24050903 C460.43071792 -0.24810423 461.17222685 -0.25569942 461.93620574 -0.26352477 C470.01847749 -0.18263843 476.33010804 2.36524903 482.09628677 8.13142776 C487.14301188 14.70257965 486.6594446 21.28467524 486.60422134 29.29611588 C486.60883292 30.74981718 486.61518757 32.20351383 486.62313032 33.65720075 C486.63981148 37.64328302 486.63158297 41.62898167 486.61918545 45.61506522 C486.61013235 49.91710026 486.62410591 54.2190695 486.63510513 58.52109146 C486.65289172 66.94507327 486.64904989 75.36891252 486.63745457 83.79289991 C486.62842167 90.63861309 486.62719563 97.48428631 486.63154984 104.33000374 C486.63216277 105.30425013 486.6327757 106.27849652 486.63340721 107.28226553 C486.6346861 109.26140441 486.63598295 111.24054329 486.63729757 113.21968215 C486.64870362 131.7777399 486.63558895 150.33571862 486.61409611 168.89376342 C486.59622229 184.82011102 486.59933152 200.74634202 486.61777115 216.67268753 C486.63917256 235.16580753 486.64760794 253.65885827 486.63532209 272.15198892 C486.63404789 274.12354846 486.63279041 276.095108 486.63154984 278.06666756 C486.63093273 279.03672518 486.63031563 280.00678281 486.62967983 281.00623612 C486.62622495 287.84485412 486.63205818 294.68342822 486.64146805 301.52203941 C486.65268118 309.85434175 486.64966231 318.18649334 486.62834507 326.51877839 C486.61782584 330.77068923 486.61372766 335.02234863 486.62694168 339.27425766 C486.6388533 343.16590793 486.63232377 347.0570735 486.61103147 350.94867974 C486.60656017 352.3570422 486.60884359 353.76544554 486.61853462 355.17378176 C486.70102707 368.15692708 486.70102707 368.15692708 482.09628677 373.13142776 C481.56648209 373.72310745 481.0366774 374.31478714 480.49081802 374.92439651 C471.28654067 383.03779655 460.91659859 382.55358758 449.28549576 382.47200394 C447.58960866 382.47115666 445.89372047 382.47163477 444.19783401 382.47333145 C439.61577092 382.4741889 435.03394551 382.45660384 430.45193744 382.43560958 C425.6553448 382.4168009 420.85874617 382.41508904 416.06212234 382.41153336 C406.98879895 382.40222518 397.91558455 382.37762805 388.84230906 382.34748489 C378.50857595 382.31390261 368.17483751 382.29744525 357.84106338 382.28239858 C336.59273024 382.25107736 315.34454644 382.19608067 294.09628677 382.13142776 C299.54128677 397.97142776 299.54128677 397.97142776 305.09628677 414.13142776 C314.98284093 414.3409941 314.98284093 414.3409941 324.86996841 414.51936722 C326.11125504 414.55248001 327.35254166 414.5855928 328.63144302 414.61970901 C329.89351578 414.6458931 331.15558853 414.67207718 332.45590591 414.69905472 C336.64901217 415.19707572 339.35648204 416.20711376 343.09628677 418.13142776 C345.29039884 422.5196519 344.405801 428.37842654 344.44638443 433.25227737 C344.46292681 434.70816935 344.49019513 436.16398067 344.52841568 437.61946487 C344.58336801 439.72413899 344.60508293 441.82691283 344.61972427 443.93220901 C344.63954361 445.19202591 344.65936295 446.4518428 344.67978287 447.74983597 C343.9145111 452.18489002 342.64212923 453.39430113 339.09628677 456.13142776 C336.14464378 456.84980299 333.27895594 456.80700291 330.25253677 456.76634598 C329.36157806 456.77414593 328.47061935 456.78194588 327.5526619 456.7899822 C324.56678307 456.80992818 321.58217509 456.79412733 318.59628677 456.77840042 C316.45589834 456.78517537 314.31551574 456.7940778 312.1751442 456.80495071 C306.3610953 456.82776498 300.54748951 456.81889868 294.73343277 456.80305529 C288.65254893 456.79040745 282.57170334 456.8021333 276.49081802 456.80998611 C266.27850906 456.8190859 256.06638081 456.80708599 245.85409927 456.78328323 C234.04274895 456.7560715 222.23183013 456.76488542 210.42049026 456.79241526 C200.2844765 456.81509582 190.14859274 456.81831152 180.0125618 456.80522192 C173.95657654 456.79742168 167.9007942 456.79640175 161.84482193 456.81290436 C156.15163318 456.82733435 150.45900145 456.8173537 144.76587296 456.78843307 C142.67487895 456.78181448 140.58383817 456.78373307 138.4928627 456.7947464 C135.64128518 456.80838258 132.79149966 456.79130929 129.94003677 456.76634598 C128.69465889 456.78307639 128.69465889 456.78307639 127.42412186 456.80014479 C123.18031383 456.72793109 121.5542261 456.48545685 118.08200455 453.80111122 C115.51372257 450.34820366 115.47822737 448.27849087 115.50253677 444.00252151 C115.50249649 443.33100555 115.50245621 442.65948959 115.5024147 441.96762466 C115.50775335 440.55476341 115.5252658 439.14190125 115.55429459 437.72932816 C115.59623833 435.5714202 115.59535315 433.41662881 115.58847427 431.25838089 C115.66746811 420.89036502 115.66746811 420.89036502 117.43808365 417.75667191 C120.83380858 414.42844151 125.14498808 414.92049179 129.60800552 414.81502151 C130.25370499 414.79637039 130.89940445 414.77771927 131.56467056 414.75850296 C133.97090678 414.69033403 136.3773626 414.6301032 138.78378677 414.56892776 C144.16691177 414.42455276 149.55003677 414.28017776 155.09628677 414.13142776 C158.72628677 403.57142776 162.35628677 393.01142776 166.09628677 382.13142776 C160.84738541 382.12731888 155.59848404 382.12320999 150.19052505 382.11897659 C132.84790677 382.10177906 115.50543545 382.05752865 98.16290855 381.9993372 C87.64816478 381.96471622 77.13355172 381.93933546 66.61874771 381.93587112 C57.4517038 381.93282722 48.28489284 381.9122793 39.11793888 381.87090319 C34.26615593 381.84961031 29.41470388 381.83695351 24.56287384 381.84527397 C19.99085742 381.8528376 15.41951014 381.83689775 10.8476162 381.80336761 C9.17477706 381.79516213 7.50187103 381.79535148 5.82903862 381.80483055 C-3.95584956 381.85476204 -12.93762526 381.66345076 -20.53574562 374.6181345 C-24.64237111 369.9674309 -26.1521221 366.32444272 -26.16656876 360.18267918 C-26.17809219 358.34505055 -26.17809219 358.34505055 -26.18984842 356.47029811 C-26.18828795 355.10874999 -26.18653038 353.74720209 -26.18459702 352.38565445 C-26.18976447 350.94080831 -26.19579083 349.49596502 -26.20260382 348.05112571 C-26.21874887 344.0755718 -26.22232323 340.10009011 -26.22379875 336.12450731 C-26.22749903 331.83872881 -26.24259334 327.55298782 -26.25606918 323.26723099 C-26.2832409 313.89320079 -26.29528617 304.5191877 -26.3040905 295.14512467 C-26.30961475 289.29223979 -26.31808938 283.43936151 -26.32709885 277.58648109 C-26.35148533 261.38267844 -26.37208342 245.17888108 -26.37884903 228.97506046 C-26.37928816 227.93783346 -26.37972729 226.90060645 -26.38017973 225.83194832 C-26.38061629 224.79223311 -26.38105284 223.7525179 -26.38150263 222.68129617 C-26.38238956 220.57442271 -26.38328269 218.46754926 -26.38418198 216.36067581 C-26.38462484 215.31559283 -26.3850677 214.27050984 -26.38552397 213.19375768 C-26.39341942 196.26094645 -26.42832528 179.3283074 -26.47490102 162.39556269 C-26.52232983 145.01240496 -26.54725282 127.62933362 -26.54958487 110.24611014 C-26.55141835 100.48548012 -26.56292214 90.72507439 -26.59922409 80.96450615 C-26.63002872 72.6526852 -26.64026579 64.34115784 -26.62374789 56.02929065 C-26.6159353 51.78904366 -26.61778977 47.54938785 -26.64586258 43.30921364 C-26.67134642 39.42451908 -26.66894354 35.54085969 -26.64468116 31.65616652 C-26.64076783 30.25370273 -26.64692202 28.85116555 -26.66436988 27.44880483 C-26.76480544 18.82797304 -26.06009586 12.53069563 -19.90371323 6.13142776 C-13.3778113 1.05345326 -8.20182908 -0.01932802 0 0 Z M30.09628677 58.13142776 C29.99880506 59.55353298 29.97073236 60.98046053 29.97044563 62.40590286 C29.96783789 63.33386044 29.96523014 64.26181801 29.96254337 65.21789551 C29.96477409 66.24929279 29.96700481 67.28069008 29.96930313 68.34334183 C29.96774314 69.42971561 29.96618315 70.5160894 29.96457589 71.63538361 C29.96056076 75.30595345 29.96375751 78.97648255 29.96689224 82.64705276 C29.96553843 85.26623433 29.96375861 87.8854157 29.96158218 90.50459671 C29.95712382 96.89832871 29.95810125 103.29204901 29.96099482 109.68578148 C29.9632486 114.87978207 29.96356149 120.07377937 29.96247101 125.2677803 C29.96231778 126.00560218 29.96216454 126.74342406 29.96200667 127.50360417 C29.96168696 129.00223891 29.96136274 130.50087365 29.96103407 131.99950838 C29.95817909 146.06884303 29.9614666 160.13817117 29.96683444 174.20750475 C29.9713025 186.2928261 29.97052657 198.37813784 29.96591568 210.46345901 C29.96057024 224.48072213 29.95845378 238.49797954 29.96152794 252.51524353 C29.96184651 254.00852076 29.96216088 255.50179799 29.96247101 256.99507523 C29.96262528 257.72989286 29.96277956 258.46471049 29.96293851 259.22179532 C29.96380376 264.41258077 29.96234062 269.6033626 29.95999146 274.79414749 C29.95690219 281.77404827 29.95908572 288.75393053 29.96488571 295.7338295 C29.9662141 298.30382634 29.96581787 300.8738247 29.96362305 303.44382095 C29.96091463 306.93573964 29.96428888 310.42759887 29.96930313 313.9195137 C29.96707241 314.95091099 29.96484169 315.98230827 29.96254337 317.04496002 C29.96515112 317.97291759 29.96775886 318.90087517 29.97044563 319.85695267 C29.97060799 320.66407574 29.97077034 321.47119881 29.97093761 322.30278015 C29.89639184 324.15056431 29.89639184 324.15056431 31.09628677 325.13142776 C33.20637729 325.23030424 35.31984895 325.25698503 37.43225479 325.25726891 C38.10508177 325.25872235 38.77790874 325.26017579 39.47112441 325.26167327 C41.75391539 325.26535896 44.03664067 325.26183506 46.3194313 325.25841141 C47.96125257 325.25956221 49.60307357 325.26114946 51.24489403 325.26313865 C55.77853736 325.26733754 60.31215982 325.26523878 64.84580326 325.26215243 C69.72656081 325.25990082 74.60731462 325.26337675 79.48807144 325.26613235 C89.05817997 325.27059161 98.62828069 325.2696129 108.19838953 325.26671971 C115.97248175 325.26446629 123.74657177 325.26415289 131.52066422 325.26524353 C132.62483378 325.26539676 133.72900334 325.26555 134.86663258 325.26570787 C137.10935132 325.26602758 139.35207005 325.26635179 141.59478879 325.26668046 C162.65155889 325.26953571 183.70832465 325.26624753 204.76509404 325.2608801 C222.85400942 325.25641202 240.94291838 325.25718794 259.03183365 325.26179886 C280.01047433 325.26714383 300.98911119 325.26926102 321.96775246 325.26618659 C324.20247141 325.26586803 326.43719037 325.26555366 328.67190933 325.26524353 C330.32142961 325.26501212 330.32142961 325.26501212 332.00427353 325.26477603 C339.77389818 325.26391064 347.54352041 325.26537421 355.31314468 325.26772308 C364.77472471 325.27052043 374.23629643 325.26978421 383.6978755 325.26444234 C388.53029684 325.26180444 393.36270432 325.26080175 398.19512558 325.26409149 C402.6114904 325.26705264 407.02782839 325.2654647 411.44419074 325.26011394 C413.04914757 325.25898897 414.65410663 325.25958267 416.25906205 325.26198973 C418.42618071 325.26499271 420.59320518 325.2619503 422.76031876 325.25726891 C424.57248036 325.25702538 424.57248036 325.25702538 426.4212513 325.25677693 C429.01612881 325.435997 429.01612881 325.435997 430.09628677 324.13142776 C430.1928939 322.70314159 430.22000512 321.27009146 430.2193346 319.83854198 C430.22132565 318.90648432 430.2233167 317.97442665 430.22536808 317.01412481 C430.22099882 315.46016928 430.22099882 315.46016928 430.21654129 313.87482071 C430.21739572 312.7836578 430.21825014 311.6924949 430.21913046 310.56826645 C430.22078847 306.88154028 430.21525864 303.19485878 430.20981216 299.50813675 C430.20953034 296.87748084 430.20968794 294.24682484 430.21025467 291.61616898 C430.21078009 285.93690331 430.20763139 280.25764909 430.20201683 274.57838631 C430.1939043 266.36703465 430.19128686 258.15568855 430.19002884 249.94433332 C430.18783793 236.62331283 430.18117679 223.30229845 430.17172623 209.98128128 C430.16255311 197.03792222 430.15547179 184.09456481 430.15121841 171.15120316 C430.15095569 170.35393806 430.15069297 169.55667296 430.15042228 168.73524832 C430.14911728 164.73577194 430.14785357 160.73629555 430.14661038 156.73681915 C430.13623655 123.53501757 430.11861718 90.33322348 430.09628677 57.13142776 C379.28306781 57.10856369 328.46984935 57.09093071 277.65662626 57.08036244 C271.6644265 57.07911165 265.67222675 57.07781734 259.68002701 57.07649612 C258.48703402 57.07623381 257.29404104 57.0759715 256.06489675 57.07570124 C236.72095686 57.07134404 217.37701992 57.06345622 198.03308178 57.05427497 C178.2002295 57.04493983 158.36737877 57.03937245 138.53452438 57.03733927 C126.28605339 57.03596375 114.03759076 57.03161161 101.78912234 57.0235113 C93.40209444 57.01824556 85.01507089 57.01662307 76.62804145 57.01792639 C71.78144911 57.01857004 66.93487141 57.01754923 62.08828163 57.01222229 C57.65892587 57.00738919 53.22959474 57.00708852 48.80023789 57.01052887 C47.1905398 57.01095465 45.58084023 57.00965817 43.9711451 57.00654458 C41.79762096 57.00258197 39.62418795 57.0046635 37.45066547 57.00837994 C36.2389779 57.00800022 35.02729033 57.0076205 33.77888495 57.00722927 C31.1773226 56.82584272 31.1773226 56.82584272 30.09628677 58.13142776 Z M187.09628677 382.13142776 C182.47378514 393.22543169 178.74034122 404.67868523 175.09628677 416.13142776 C211.39628677 416.13142776 247.69628677 416.13142776 285.09628677 416.13142776 C281.96210795 404.63943873 278.00952993 393.38200183 274.09628677 382.13142776 C245.38628677 382.13142776 216.67628677 382.13142776 187.09628677 382.13142776 Z " fill="#3A81F5" transform="translate(25.90371322631836,27.868572235107422)"/>
<path d="M0 0 C1.06533938 -0.00307895 1.06533938 -0.00307895 2.15220076 -0.0062201 C4.55621711 -0.01192012 6.96017672 -0.01042918 9.36419868 -0.00901413 C11.09549085 -0.01159604 12.82678242 -0.01460871 14.55807316 -0.01801753 C19.33449599 -0.02611112 24.11090381 -0.02787841 28.88733268 -0.028615 C34.03125715 -0.03046145 39.17517376 -0.03800666 44.3190937 -0.04475021 C55.57508216 -0.05835043 66.83106706 -0.06436078 78.08706236 -0.06876087 C85.11011741 -0.07152024 92.13317108 -0.07575701 99.1562252 -0.08026505 C118.58628122 -0.09245953 138.01633612 -0.10275874 157.44639587 -0.10614014 C158.69071611 -0.1063597 159.93503635 -0.10657927 161.21706326 -0.10680549 C163.08810343 -0.10713291 163.08810343 -0.10713291 164.9969424 -0.10746694 C167.52472615 -0.10791041 170.0525099 -0.10835697 172.58029366 -0.10880661 C174.46111059 -0.10913875 174.46111059 -0.10913875 176.37992384 -0.10947761 C196.70787015 -0.11342759 217.03578066 -0.1308869 237.36371313 -0.15416613 C258.21478601 -0.17785251 279.0658409 -0.19034074 299.91692746 -0.19150805 C311.63187301 -0.1924263 323.3467719 -0.19821627 335.06170464 -0.21632767 C345.03519197 -0.23169203 355.00861823 -0.23687084 364.98211513 -0.22858956 C370.07419062 -0.22467012 375.166143 -0.22567544 380.25820351 -0.23964691 C384.91530305 -0.25230855 389.57218599 -0.25125699 394.2292849 -0.2390562 C395.9183854 -0.2370857 397.60750085 -0.24023941 399.2965803 -0.24890056 C401.58461423 -0.25989465 403.87187034 -0.25257621 406.15988159 -0.24050903 C407.43313887 -0.24110612 408.70639616 -0.24170321 410.01823699 -0.24231839 C413.43784206 0.15863729 414.82405201 0.68785023 417.20578194 3.13142776 C418.19668586 6.10413953 418.33146747 8.03630756 418.33276558 11.13753128 C418.33558981 12.17735342 418.33841404 13.21717556 418.34132385 14.28850746 C418.3382809 16.00706161 418.3382809 16.00706161 418.33517647 17.76033401 C418.33688913 18.97401972 418.3386018 20.18770542 418.34036636 21.43816948 C418.34395769 24.81011874 418.34297212 28.18200946 418.33993053 31.55395555 C418.33812884 34.43965821 418.34001992 37.32535366 418.34194517 40.21105587 C418.34821375 49.69312824 418.34236354 59.17517621 418.33316517 68.65724468 C418.33079111 71.12190808 418.32861742 73.58657158 418.32648659 76.0512352 C418.30916762 95.63948795 418.27758156 115.22769361 418.23752332 134.81591201 C418.21137072 147.75801032 418.20101522 160.7000471 418.19992256 173.64216995 C418.19849411 188.3047984 418.17469916 202.9672069 418.12229156 217.62974548 C418.09527671 225.32910599 418.07803777 233.0282081 418.08621407 240.72761917 C418.09308852 247.26802196 418.07973692 253.80798082 418.03954649 260.34827101 C418.01969312 263.67783514 418.0127414 267.00609376 418.02532387 270.33578491 C418.03736117 273.93687678 418.01278828 277.53589161 417.97873116 281.13679886 C417.9909527 282.18795883 418.00317425 283.2391188 418.01576614 284.32213211 C417.99910337 285.28580704 417.98244061 286.24948196 417.9652729 287.24235916 C417.96342932 288.07185766 417.96158573 288.90135616 417.95968628 289.75599098 C416.82718852 293.32431746 414.30850917 295.23524584 411.20578194 297.13142776 C407.79894012 297.75587225 407.79894012 297.75587225 403.98463535 297.75504684 C403.27684682 297.76171486 402.56905828 297.76838287 401.83982161 297.77525294 C399.46762815 297.79149831 397.09708328 297.77211342 394.72493172 297.75288773 C393.00739323 297.75721665 391.28985909 297.76373257 389.57233626 297.77224779 C384.85230501 297.78926087 380.1328032 297.77504307 375.41279972 297.75573301 C370.32276142 297.74032377 365.23278876 297.75370326 360.14274788 297.76347733 C350.17152134 297.77801533 340.20049818 297.76575849 330.2292909 297.74436408 C318.62270298 297.72037319 307.01616187 297.72206726 295.40955467 297.72466999 C274.70413696 297.72836151 253.99881519 297.70752257 233.29342842 297.67341995 C213.19151573 297.64032347 193.08970374 297.62616223 172.98776436 297.63240433 C151.10846401 297.6391649 129.22920586 297.63671791 107.34991175 297.61704493 C105.61527084 297.6154857 105.61527084 297.6154857 103.84558668 297.61389497 C101.52282214 297.61180404 99.20005762 297.60969307 96.87729312 297.6075618 C88.78237338 297.60065995 80.68746662 297.59999792 72.59254456 297.60144424 C62.73151869 297.60288239 52.87057506 297.59322158 43.00957649 297.56949788 C37.97609426 297.55761963 32.94272679 297.55052489 27.90923119 297.55633545 C23.30464518 297.56149393 18.70030196 297.55286642 14.09575755 297.53306085 C12.42695585 297.5283074 10.75813061 297.52863842 9.08933233 297.53447121 C6.8262928 297.54161877 4.56406526 297.53042726 2.30108738 297.51453781 C0.41325005 297.51218101 0.41325005 297.51218101 -1.51272541 297.50977659 C-5.14006945 297.09155187 -6.97775366 296.44052839 -9.79421806 294.13142776 C-11.63199895 290.76535541 -12.04482707 287.92727656 -12.04869366 284.12884998 C-12.05452585 283.14027738 -12.06035804 282.15170478 -12.06636697 281.13317543 C-12.06069798 279.51528969 -12.06069798 279.51528969 -12.05491447 277.86471939 C-12.05874002 276.7131189 -12.06256557 275.5615184 -12.06650704 274.37502092 C-12.07503989 271.18260991 -12.07460353 267.99034579 -12.07032645 264.79793084 C-12.06786047 261.35341499 -12.07687177 257.90892625 -12.08436394 254.46442032 C-12.09711636 247.71795856 -12.09890397 240.9715366 -12.09656367 234.22506482 C-12.09478103 228.74182096 -12.09652901 223.25858918 -12.10078812 217.77534676 C-12.10138331 216.99510467 -12.10197849 216.21486259 -12.10259172 215.41097681 C-12.10380346 213.82594486 -12.1050176 212.24091292 -12.1062341 210.65588098 C-12.11711165 195.78996123 -12.11494607 180.92406416 -12.10884925 166.05814313 C-12.10367943 152.45691414 -12.11493686 138.85575676 -12.13394747 125.25454194 C-12.15331681 111.28965464 -12.16158349 97.32480124 -12.15782422 83.35990041 C-12.15591086 75.51932032 -12.15841287 67.67880118 -12.17253876 59.83823204 C-12.18444199 53.16378528 -12.18586935 46.489437 -12.17374859 39.81498892 C-12.16785253 36.40967374 -12.16678037 33.00453879 -12.17875099 29.59923553 C-12.18916178 25.90769528 -12.18116282 22.21664219 -12.16843987 18.52511978 C-12.17581415 17.44876001 -12.18318843 16.37240024 -12.19078618 15.2634235 C-12.1512799 9.82977086 -11.96128354 5.77915549 -8.79421806 1.13142776 C-5.8617494 -0.33480657 -3.27602817 0.003208 0 0 Z M3.20578194 15.13142776 C3.10830022 16.55353298 3.08022752 17.98046053 3.0799408 19.40590286 C3.07733305 20.33386044 3.0747253 21.26181801 3.07203853 22.21789551 C3.07426925 23.24929279 3.07649997 24.28069008 3.07879829 25.34334183 C3.0772383 26.42971561 3.07567831 27.5160894 3.07407105 28.63538361 C3.07005592 32.30595345 3.07325267 35.97648255 3.07638741 39.64705276 C3.07503359 42.26623433 3.07325377 44.8854157 3.07107735 47.50459671 C3.06661898 53.89832871 3.06759641 60.29204901 3.07048999 66.68578148 C3.07274376 71.87978207 3.07305666 77.07377937 3.07196617 82.2677803 C3.07181294 83.00560218 3.07165971 83.74342406 3.07150183 84.50360417 C3.07118212 86.00223891 3.07085791 87.50087365 3.07052924 88.99950838 C3.06767425 103.06884303 3.07096176 117.13817117 3.0763296 131.20750475 C3.08079766 143.2928261 3.08002173 155.37813784 3.07541084 167.46345901 C3.07006541 181.48072213 3.06794894 195.49797954 3.07102311 209.51524353 C3.07134167 211.00852076 3.07165604 212.50179799 3.07196617 213.99507523 C3.07212045 214.72989286 3.07227472 215.46471049 3.07243367 216.22179532 C3.07329892 221.41258077 3.07183579 226.6033626 3.06948662 231.79414749 C3.06639735 238.77404827 3.06858088 245.75393053 3.07438087 252.7338295 C3.07570927 255.30382634 3.07531303 257.8738247 3.07311821 260.44382095 C3.07040979 263.93573964 3.07378404 267.42759887 3.07879829 270.9195137 C3.07656757 271.95091099 3.07433685 272.98230827 3.07203853 274.04496002 C3.07464628 274.97291759 3.07725403 275.90087517 3.0799408 276.85695267 C3.08010315 277.66407574 3.0802655 278.47119881 3.08043277 279.30278015 C3.005887 281.15056431 3.005887 281.15056431 4.20578194 282.13142776 C6.31587245 282.23030424 8.42934411 282.25698503 10.54174995 282.25726891 C11.21457693 282.25872235 11.8874039 282.26017579 12.58061957 282.26167327 C14.86341056 282.26535896 17.14613583 282.26183506 19.42892647 282.25841141 C21.07074773 282.25956221 22.71256873 282.26114946 24.35438919 282.26313865 C28.88803253 282.26733754 33.42165498 282.26523878 37.95529842 282.26215243 C42.83605597 282.25990082 47.71680979 282.26337675 52.5975666 282.26613235 C62.16767514 282.27059161 71.73777585 282.2696129 81.30788469 282.26671971 C89.08197691 282.26446629 96.85606693 282.26415289 104.63015938 282.26524353 C105.73432894 282.26539676 106.8384985 282.26555 107.97612774 282.26570787 C110.21884648 282.26602758 112.46156522 282.26635179 114.70428395 282.26668046 C135.76105406 282.26953571 156.81781981 282.26624753 177.8745892 282.2608801 C195.96350458 282.25641202 214.05241355 282.25718794 232.14132881 282.26179886 C253.11996949 282.26714383 274.09860636 282.26926102 295.07724762 282.26618659 C297.31196658 282.26586803 299.54668554 282.26555366 301.7814045 282.26524353 C303.43092478 282.26501212 303.43092478 282.26501212 305.1137687 282.26477603 C312.88339334 282.26391064 320.65301558 282.26537421 328.42263985 282.26772308 C337.88421987 282.27052043 347.3457916 282.26978421 356.80737066 282.26444234 C361.63979201 282.26180444 366.47219948 282.26080175 371.30462074 282.26409149 C375.72098556 282.26705264 380.13732355 282.2654647 384.5536859 282.26011394 C386.15864273 282.25898897 387.76360179 282.25958267 389.36855721 282.26198973 C391.53567587 282.26499271 393.70270034 282.2619503 395.86981392 282.25726891 C397.68197553 282.25702538 397.68197553 282.25702538 399.53074646 282.25677693 C402.12562397 282.435997 402.12562397 282.435997 403.20578194 281.13142776 C403.30238906 279.70314159 403.32950028 278.27009146 403.32882977 276.83854198 C403.33082081 275.90648432 403.33281186 274.97442665 403.33486325 274.01412481 C403.33049398 272.46016928 403.33049398 272.46016928 403.32603645 270.87482071 C403.32689088 269.7836578 403.3277453 268.6924949 403.32862562 267.56826645 C403.33028364 263.88154028 403.3247538 260.19485878 403.31930733 256.50813675 C403.3190255 253.87748084 403.3191831 251.24682484 403.31974983 248.61616898 C403.32027526 242.93690331 403.31712655 237.25764909 403.31151199 231.57838631 C403.30339946 223.36703465 403.30078203 215.15568855 403.299524 206.94433332 C403.29733309 193.62331283 403.29067196 180.30229845 403.28122139 166.98128128 C403.27204828 154.03792222 403.26496695 141.09456481 403.26071358 128.15120316 C403.26045085 127.35393806 403.26018813 126.55667296 403.25991745 125.73524832 C403.25861245 121.73577194 403.25734873 117.73629555 403.25610554 113.73681915 C403.24573172 80.53501757 403.22811235 47.33322348 403.20578194 14.13142776 C352.39256297 14.10856369 301.57934452 14.09093071 250.76612142 14.08036244 C244.77392166 14.07911165 238.78172191 14.07781734 232.78952217 14.07649612 C231.59652919 14.07623381 230.4035362 14.0759715 229.17439192 14.07570124 C209.83045202 14.07134404 190.48651508 14.06345622 171.14257694 14.05427497 C151.30972466 14.04493983 131.47687393 14.03937245 111.64401954 14.03733927 C99.39554855 14.03596375 87.14708592 14.03161161 74.8986175 14.0235113 C66.5115896 14.01824556 58.12456605 14.01662307 49.73753662 14.01792639 C44.89094427 14.01857004 40.04436657 14.01754923 35.19777679 14.01222229 C30.76842103 14.00738919 26.3390899 14.00708852 21.90973305 14.01052887 C20.30003496 14.01095465 18.6903354 14.00965817 17.08064026 14.00654458 C14.90711612 14.00258197 12.73368311 14.0046635 10.56016064 14.00837994 C9.34847306 14.00800022 8.13678549 14.0076205 6.88838011 14.00722927 C4.28681776 13.82584272 4.28681776 13.82584272 3.20578194 15.13142776 Z " fill="#F9FBFE" transform="translate(52.79421806335449,70.86857223510742)"/>
<path d="M0 0 C5.05365292 -0.09897181 10.10674024 -0.17151603 15.16113281 -0.21972656 C16.87998279 -0.23982628 18.59876452 -0.26711089 20.31738281 -0.30175781 C22.78988489 -0.35035034 25.2614821 -0.37298435 27.734375 -0.390625 C28.88459137 -0.42159271 28.88459137 -0.42159271 30.05804443 -0.45318604 C33.7344604 -0.45472777 35.60484811 -0.31786956 38.51660156 2.02441406 C39.00612305 2.67635742 39.49564453 3.32830078 40 4 C33.23539937 7.80508786 26.61378492 7.44593588 19 7.375 C17.75476563 7.38660156 16.50953125 7.39820313 15.2265625 7.41015625 C8.74487382 7.3894259 3.7000222 7.20626249 -2 4 C-1.34 2.68 -0.68 1.36 0 0 Z " fill="#FDFCFE" transform="translate(244,184)"/>
<path d="M0 0 C11.55 0 23.1 0 35 0 C34 5 34 5 33 7 C28.81912848 7.07441989 24.6386127 7.12872818 20.45727539 7.16479492 C19.03630859 7.1798376 17.61538787 7.20027704 16.19458008 7.22631836 C14.14653114 7.26290347 12.0990985 7.27977097 10.05078125 7.29296875 C8.20480347 7.31653442 8.20480347 7.31653442 6.3215332 7.34057617 C2.7550179 6.97488056 0.88172831 6.0734095 -2 4 C-1.34 2.68 -0.68 1.36 0 0 Z " fill="#FCFCFE" transform="translate(387,184)"/>
<path d="M0 0 C1.24394531 0.00644531 2.48789062 0.01289063 3.76953125 0.01953125 C5.69732422 0.04466797 5.69732422 0.04466797 7.6640625 0.0703125 C8.97246094 0.07933594 10.28085937 0.08835938 11.62890625 0.09765625 C14.8491462 0.12116165 18.06900957 0.15402163 21.2890625 0.1953125 C22.749691 2.84270166 23.2890625 4.08979584 23.2890625 7.1953125 C18.50188708 7.24474715 13.71486023 7.28104832 8.92749023 7.30517578 C7.29888318 7.31523392 5.67029418 7.32888208 4.04174805 7.34619141 C1.70096378 7.37044824 -0.63958174 7.38179733 -2.98046875 7.390625 C-4.07280571 7.40610886 -4.07280571 7.40610886 -5.18721008 7.42190552 C-8.92368819 7.42273499 -10.51768806 7.32414546 -13.7109375 5.1953125 C-13.3809375 4.2053125 -13.0509375 3.2153125 -12.7109375 2.1953125 C-8.4157974 0.28539153 -4.66095065 -0.04276102 0 0 Z " fill="#FDFDFE" transform="translate(398.7109375,251.8046875)"/>
<path d="M0 0 C4.6447121 -0.0988803 9.28881173 -0.1714715 13.93432617 -0.21972656 C15.51451285 -0.23984186 17.09462509 -0.26713804 18.67456055 -0.30175781 C20.94598748 -0.35028343 23.21643058 -0.37296809 25.48828125 -0.390625 C26.54780754 -0.42159271 26.54780754 -0.42159271 27.6287384 -0.45318604 C29.63012695 -0.45410156 29.63012695 -0.45410156 33 0 C34.96948242 2.02441406 34.96948242 2.02441406 36 4 C34.21098133 6.31164474 33.32402881 6.95192182 30.38378906 7.38818359 C29.35479492 7.39156738 28.32580078 7.39495117 27.265625 7.3984375 C26.13382812 7.40230469 25.00203125 7.40617188 23.8359375 7.41015625 C22.65257812 7.39855469 21.46921875 7.38695312 20.25 7.375 C18.49816406 7.39240234 18.49816406 7.39240234 16.7109375 7.41015625 C10.38109338 7.38862617 5.57823114 7.08270668 0 4 C0 2.68 0 1.36 0 0 Z " fill="#FDFDFE" transform="translate(329,184)"/>
<path d="M0 0 C4.6447121 -0.0988803 9.28881173 -0.1714715 13.93432617 -0.21972656 C15.51451285 -0.23984186 17.09462509 -0.26713804 18.67456055 -0.30175781 C20.94598748 -0.35028343 23.21643058 -0.37296809 25.48828125 -0.390625 C26.54780754 -0.42159271 26.54780754 -0.42159271 27.6287384 -0.45318604 C29.63012695 -0.45410156 29.63012695 -0.45410156 33 0 C34.96948242 2.02441406 34.96948242 2.02441406 36 4 C34.21098133 6.31164474 33.32402881 6.95192182 30.38378906 7.38818359 C29.35479492 7.39156738 28.32580078 7.39495117 27.265625 7.3984375 C26.13382813 7.40230469 25.00203125 7.40617188 23.8359375 7.41015625 C22.65257812 7.39855469 21.46921875 7.38695312 20.25 7.375 C18.49816406 7.39240234 18.49816406 7.39240234 16.7109375 7.41015625 C10.38109338 7.38862617 5.57823114 7.08270668 0 4 C0 2.68 0 1.36 0 0 Z " fill="#FDFDFE" transform="translate(167,184)"/>
<path d="M0 0 C1.23556641 -0.01998047 2.47113281 -0.03996094 3.74414062 -0.06054688 C4.92556641 -0.05990234 6.10699219 -0.05925781 7.32421875 -0.05859375 C8.40147217 -0.06044678 9.47872559 -0.0622998 10.58862305 -0.06420898 C13.3125 0.4375 13.3125 0.4375 15.18676758 2.46850586 C15.55825928 3.11827393 15.92975098 3.76804199 16.3125 4.4375 C15.28198242 5.91918945 15.28198242 5.91918945 13.3125 7.4375 C10.72475229 7.69903069 8.38350347 7.78708438 5.80078125 7.73046875 C5.07255661 7.72622391 4.34433197 7.72197906 3.59403992 7.71760559 C1.27064873 7.70082733 -1.0518715 7.66317855 -3.375 7.625 C-4.95115934 7.60995197 -6.52733229 7.59626377 -8.10351562 7.58398438 C-11.96517877 7.55092685 -15.82619178 7.49915194 -19.6875 7.4375 C-19.6875 6.1175 -19.6875 4.7975 -19.6875 3.4375 C-13.08434964 -0.3019918 -7.42592026 -0.04301481 0 0 Z " fill="#FCFCFE" transform="translate(186.6875,251.5625)"/>
<path d="M0 0 C1.16080078 0.00902344 2.32160156 0.01804688 3.51757812 0.02734375 C6.36610108 0.05078838 9.21419078 0.08360478 12.0625 0.125 C12.7225 2.435 13.3825 4.745 14.0625 7.125 C9.70257129 7.17445386 5.34279138 7.21074488 0.98266602 7.23486328 C-0.50043583 7.24491821 -1.98351788 7.25856404 -3.46655273 7.27587891 C-5.59884531 7.30015006 -7.73087569 7.31148799 -9.86328125 7.3203125 C-11.78781128 7.33602295 -11.78781128 7.33602295 -13.7512207 7.35205078 C-16.9375 7.125 -16.9375 7.125 -19.9375 5.125 C-19.9375 4.135 -19.9375 3.145 -19.9375 2.125 C-13.32412851 -0.31302084 -6.98501938 -0.10324645 0 0 Z " fill="#FDFDFE" transform="translate(99.9375,251.875)"/>
<path d="M0 0 C1.30582031 -0.02900391 2.61164063 -0.05800781 3.95703125 -0.08789062 C5.20613281 -0.09626953 6.45523438 -0.10464844 7.7421875 -0.11328125 C9.46864502 -0.13515503 9.46864502 -0.13515503 11.22998047 -0.1574707 C14.125 0.3125 14.125 0.3125 16.02392578 2.33911133 C16.38728027 2.99032959 16.75063477 3.64154785 17.125 4.3125 C16.01953125 5.78979492 16.01953125 5.78979492 14.125 7.3125 C11.26171875 7.68481445 11.26171875 7.68481445 7.8125 7.67578125 C6.57242188 7.67513672 5.33234375 7.67449219 4.0546875 7.67382812 C2.10949219 7.6496582 2.10949219 7.6496582 0.125 7.625 C-1.17179687 7.62822266 -2.46859375 7.63144531 -3.8046875 7.63476562 C-13.474529 7.57948067 -13.474529 7.57948067 -16.875 5.3125 C-13.3381178 -1.99705654 -7.59714412 0.05591617 0 0 Z " fill="#FCFCFD" transform="translate(100.875,217.6875)"/>
<path d="M0 0 C10.56 0 21.12 0 32 0 C31.34 2.31 30.68 4.62 30 7 C25.97930575 7.08765069 21.9588599 7.14061018 17.9375 7.1875 C16.2369043 7.22520508 16.2369043 7.22520508 14.50195312 7.26367188 C8.19829656 7.3188059 3.55715936 7.07297201 -2 4 C-1.34 2.68 -0.68 1.36 0 0 Z " fill="#FDFDFE" transform="translate(82,184)"/>
<path d="M0 0 C1.29679687 -0.01998047 2.59359375 -0.03996094 3.9296875 -0.06054688 C5.16976563 -0.05990234 6.40984375 -0.05925781 7.6875 -0.05859375 C9.39486328 -0.06137329 9.39486328 -0.06137329 11.13671875 -0.06420898 C14 0.4375 14 0.4375 15.89453125 2.46850586 C16.25933594 3.11827393 16.62414062 3.76804199 17 4.4375 C15.89453125 5.91040039 15.89453125 5.91040039 14 7.4375 C9.36301425 8.09184954 4.67787616 7.90057487 0 7.875 C-1.29679687 7.89498047 -2.59359375 7.91496094 -3.9296875 7.93554688 C-5.16976563 7.93490234 -6.40984375 7.93425781 -7.6875 7.93359375 C-9.39486328 7.93637329 -9.39486328 7.93637329 -11.13671875 7.93920898 C-14 7.4375 -14 7.4375 -15.89453125 5.40649414 C-16.25933594 4.75672607 -16.62414062 4.10695801 -17 3.4375 C-13.11745391 -1.73551249 -5.83407402 -0.03189603 0 0 Z " fill="#FCFCFD" transform="translate(350,217.5625)"/>
<path d="M0 0 C1.29679687 -0.01998047 2.59359375 -0.03996094 3.9296875 -0.06054688 C5.16976562 -0.05990234 6.40984375 -0.05925781 7.6875 -0.05859375 C9.39486328 -0.06137329 9.39486328 -0.06137329 11.13671875 -0.06420898 C14 0.4375 14 0.4375 15.89453125 2.46850586 C16.25933594 3.11827393 16.62414062 3.76804199 17 4.4375 C15.89453125 5.91040039 15.89453125 5.91040039 14 7.4375 C9.36301425 8.09184954 4.67787616 7.90057487 0 7.875 C-1.29679688 7.89498047 -2.59359375 7.91496094 -3.9296875 7.93554688 C-5.16976562 7.93490234 -6.40984375 7.93425781 -7.6875 7.93359375 C-9.39486328 7.93637329 -9.39486328 7.93637329 -11.13671875 7.93920898 C-14 7.4375 -14 7.4375 -15.89453125 5.40649414 C-16.25933594 4.75672607 -16.62414062 4.10695801 -17 3.4375 C-13.11745391 -1.73551249 -5.83407402 -0.03189603 0 0 Z " fill="#FCFCFD" transform="translate(188,217.5625)"/>
<path d="M0 0 C1.32 0.66 2.64 1.32 4 2 C4.07419134 6.21749219 4.1286204 10.43463811 4.16479492 14.65258789 C4.17987589 16.08722552 4.2003438 17.52181708 4.22631836 18.95629883 C4.26273437 21.01915859 4.27973243 23.08140858 4.29296875 25.14453125 C4.3086792 26.38565674 4.32438965 27.62678223 4.34057617 28.90551758 C4 32 4 32 2.48168945 33.9284668 C1.74825317 34.45887573 1.74825317 34.45887573 1 35 C-4.34324693 29.65675307 -3.23017521 19.13593982 -3.3125 12 C-3.33006348 11.16283447 -3.34762695 10.32566895 -3.36572266 9.46313477 C-3.36491699 8.67092529 -3.36411133 7.87871582 -3.36328125 7.0625 C-3.36626221 6.35222656 -3.36924316 5.64195312 -3.37231445 4.91015625 C-2.89761481 2.47471363 -1.86459089 1.57277672 0 0 Z " fill="#FCFCFE" transform="translate(262,224)"/>
<path d="M0 0 C3 1 3 1 4 3 C4.08586809 5.32416296 4.10711043 7.65083307 4.09765625 9.9765625 C4.0962413 10.66181 4.09482635 11.3470575 4.09336853 12.05307007 C4.08776675 14.24375761 4.07521406 16.4343433 4.0625 18.625 C4.05748522 20.10937352 4.05292228 21.59374865 4.04882812 23.078125 C4.03779677 26.71878315 4.02053099 30.35938164 4 34 C1.13338224 32.71496445 -1.09633205 31.53798048 -3 29 C-3.37231445 26.62744141 -3.37231445 26.62744141 -3.36328125 23.8515625 C-3.36263672 22.84609375 -3.36199219 21.840625 -3.36132812 20.8046875 C-3.34521484 19.75539062 -3.32910156 18.70609375 -3.3125 17.625 C-3.31572266 16.5834375 -3.31894531 15.541875 -3.32226562 14.46875 C-3.24331435 3.24331435 -3.24331435 3.24331435 0 0 Z " fill="#FCFCFD" transform="translate(225,185)"/>
<path d="M0 0 C0.66 0.33 1.32 0.66 2 1 C2.09907258 5.19915307 2.17156173 9.39768252 2.21972656 13.59765625 C2.23980982 15.02551121 2.26708252 16.45328425 2.30175781 17.88085938 C2.35042669 19.93640368 2.37299967 21.99085855 2.390625 24.046875 C2.41157227 25.28276367 2.43251953 26.51865234 2.45410156 27.79199219 C1.92239031 31.54827491 0.92331838 32.68359893 -2 35 C-5.2873112 28.79257726 -5.51764294 23.32631881 -5.5 16.375 C-5.52835938 15.35148438 -5.55671875 14.32796875 -5.5859375 13.2734375 C-5.60498171 5.96045991 -5.60498171 5.96045991 -3.8515625 3.17675781 C-2.46875 1.7890625 -2.46875 1.7890625 0 0 Z " fill="#FCFCFD" transform="translate(227,223)"/>
<path d="M0 0 C0.04944705 4.50234373 0.08574161 9.0045293 0.10986328 13.50708008 C0.11991935 15.03868361 0.133566 16.57026795 0.15087891 18.10180664 C0.17514498 20.30359636 0.18648688 22.50513219 0.1953125 24.70703125 C0.20563507 25.39150833 0.21595764 26.07598541 0.22659302 26.78120422 C0.22745382 30.43061661 0.08567666 31.87148502 -2 35 C-2.66 35 -3.32 35 -4 35 C-6.73280242 29.07438478 -6.36798816 23.35684387 -6.375 16.9375 C-6.39949219 15.75349609 -6.42398438 14.56949219 -6.44921875 13.34960938 C-6.45308594 12.21201172 -6.45695312 11.07441406 -6.4609375 9.90234375 C-6.46915527 8.86585693 -6.47737305 7.82937012 -6.48583984 6.76147461 C-5.84151117 3.09916221 -4.03432466 0 0 0 Z " fill="#FCFCFD" transform="translate(122,224)"/>
<path d="M0 0 C2.46800047 1.15173355 4.04783565 2.04783565 6 4 C6.25878906 6.55029297 6.25878906 6.55029297 6.265625 9.7421875 C6.26820313 10.89074219 6.27078125 12.03929687 6.2734375 13.22265625 C6.26570313 14.42792969 6.25796875 15.63320312 6.25 16.875 C6.25773437 18.07253906 6.26546875 19.27007812 6.2734375 20.50390625 C6.27085937 21.65503906 6.26828125 22.80617187 6.265625 23.9921875 C6.26336914 25.04776855 6.26111328 26.10334961 6.25878906 27.19091797 C6.0022049 29.9760664 5.4350329 31.62941685 4 34 C3.01 34 2.02 34 1 34 C-0.47905238 31.04189524 -0.12190903 28.0452845 -0.09765625 24.8046875 C-0.0962413 24.09724396 -0.09482635 23.38980042 -0.09336853 22.66091919 C-0.087766 20.39890331 -0.07521318 18.13698602 -0.0625 15.875 C-0.05748532 14.34244935 -0.05292236 12.80989714 -0.04882812 11.27734375 C-0.03779577 7.51819112 -0.02052952 3.75911228 0 0 Z " fill="#FDFDFE" transform="translate(329,224)"/>
<path d="M0 0 C1.32 0.66 2.64 1.32 4 2 C4 12.56 4 23.12 4 34 C0 32 0 32 -2 30 C-2.25878906 27.34204102 -2.25878906 27.34204102 -2.265625 24.00390625 C-2.26820312 22.80572266 -2.27078125 21.60753906 -2.2734375 20.37304688 C-2.26570313 19.11556641 -2.25796875 17.85808594 -2.25 16.5625 C-2.25773437 15.30888672 -2.26546875 14.05527344 -2.2734375 12.76367188 C-2.27085938 11.56419922 -2.26828125 10.36472656 -2.265625 9.12890625 C-2.26336914 8.02619385 -2.26111328 6.92348145 -2.25878906 5.78735352 C-2 3 -2 3 0 0 Z " fill="#FCFCFD" transform="translate(118,185)"/>
<path d="M0 0 C2.46800047 1.15173355 4.04783565 2.04783565 6 4 C6.22705078 6.43017578 6.22705078 6.43017578 6.1953125 9.4453125 C6.18564453 11.05986328 6.18564453 11.05986328 6.17578125 12.70703125 C6.15902344 13.83496094 6.14226562 14.96289062 6.125 16.125 C6.11597656 17.26066406 6.10695312 18.39632812 6.09765625 19.56640625 C6.07403098 22.37781299 6.04109013 25.18880298 6 28 C2 28 2 28 0.27050781 26.33666992 C-1.25031032 23.53963873 -1.35978212 21.78472432 -1.328125 18.61328125 C-1.32296875 17.59298828 -1.3178125 16.57269531 -1.3125 15.52148438 C-1.291875 14.46251953 -1.27125 13.40355469 -1.25 12.3125 C-1.24484375 11.24193359 -1.2396875 10.17136719 -1.234375 9.06835938 C-1.15407791 1.15407791 -1.15407791 1.15407791 0 0 Z " fill="#FCFCFD" transform="translate(204,190)"/>
<path d="M0 0 C2.46800047 1.15173355 4.04783565 2.04783565 6 4 C6.22705078 6.43017578 6.22705078 6.43017578 6.1953125 9.4453125 C6.18564453 11.05986328 6.18564453 11.05986328 6.17578125 12.70703125 C6.15902344 13.83496094 6.14226562 14.96289062 6.125 16.125 C6.11597656 17.26066406 6.10695313 18.39632812 6.09765625 19.56640625 C6.07403098 22.37781299 6.04109013 25.18880298 6 28 C2 28 2 28 0.27050781 26.33666992 C-1.25031032 23.53963873 -1.35978212 21.78472432 -1.328125 18.61328125 C-1.32296875 17.59298828 -1.3178125 16.57269531 -1.3125 15.52148438 C-1.291875 14.46251953 -1.27125 13.40355469 -1.25 12.3125 C-1.24484375 11.24193359 -1.2396875 10.17136719 -1.234375 9.06835938 C-1.15407791 1.15407791 -1.15407791 1.15407791 0 0 Z " fill="#FCFCFD" transform="translate(366,190)"/>
<path d="M0 0 C0.66 0.33 1.32 0.66 2 1 C2.11618764 4.91641711 2.18724654 8.83239101 2.25 12.75 C2.28351563 13.86117187 2.31703125 14.97234375 2.3515625 16.1171875 C2.36445313 17.18710938 2.37734375 18.25703125 2.390625 19.359375 C2.41157227 20.34389648 2.43251953 21.32841797 2.45410156 22.34277344 C1.88098889 25.69640696 0.56715917 26.85922021 -2 29 C-2.99 28.67 -3.98 28.34 -5 28 C-5.14560195 24.27124612 -5.23417043 20.54322566 -5.3125 16.8125 C-5.35439453 15.75740234 -5.39628906 14.70230469 -5.43945312 13.61523438 C-5.5608921 5.91600315 -5.5608921 5.91600315 -3.86474609 3.14599609 C-2.48046875 1.76171875 -2.48046875 1.76171875 0 0 Z " fill="#FCFCFD" transform="translate(208,224)"/>
<path d="M0 0 C2.31 0.66 4.62 1.32 7 2 C7.11667875 5.22886009 7.18740546 8.45717445 7.25 11.6875 C7.28351563 12.59951172 7.31703125 13.51152344 7.3515625 14.45117188 C7.41477749 18.79720231 7.39576185 21.31925579 5.171875 25.14453125 C3 27 3 27 0 27 C0 18.09 0 9.18 0 0 Z " fill="#FDFDFE" transform="translate(79,192)"/>
<path d="M0 0 C2.31 0.66 4.62 1.32 7 2 C7.11667875 5.22886009 7.18740546 8.45717445 7.25 11.6875 C7.28351563 12.59951172 7.31703125 13.51152344 7.3515625 14.45117188 C7.41477749 18.79720231 7.39576185 21.31925579 5.171875 25.14453125 C3 27 3 27 0 27 C0 18.09 0 9.18 0 0 Z " fill="#FDFDFE" transform="translate(384,192)"/>
<path d="M0 0 C2.56254132 1.59738468 4.18484238 2.65460816 6 5 C6.74945326 8.46271056 6.56917611 11.7899462 6.375 15.3125 C6.34792969 16.24384766 6.32085937 17.17519531 6.29296875 18.13476562 C6.2224825 20.42556872 6.12404246 22.71157563 6 25 C3.69 25.66 1.38 26.32 -1 27 C-1.02886537 22.68751391 -1.04675255 18.37505238 -1.0625 14.0625 C-1.07087891 12.83080078 -1.07925781 11.59910156 -1.08789062 10.33007812 C-1.09111328 9.16025391 -1.09433594 7.99042969 -1.09765625 6.78515625 C-1.10289307 5.70113525 -1.10812988 4.61711426 -1.11352539 3.50024414 C-1 1 -1 1 0 0 Z " fill="#FCFCFD" transform="translate(385,224)"/>
<path d="M0 0 C2.56254132 1.59738468 4.18484238 2.65460816 6 5 C6.74945326 8.46271056 6.56917611 11.7899462 6.375 15.3125 C6.34792969 16.24384766 6.32085937 17.17519531 6.29296875 18.13476562 C6.2224825 20.42556872 6.12404246 22.71157563 6 25 C3.69 25.66 1.38 26.32 -1 27 C-1.02886537 22.68751391 -1.04675255 18.37505238 -1.0625 14.0625 C-1.07087891 12.83080078 -1.07925781 11.59910156 -1.08789062 10.33007812 C-1.09111328 9.16025391 -1.09433594 7.99042969 -1.09765625 6.78515625 C-1.10289307 5.70113525 -1.10812988 4.61711426 -1.11352539 3.50024414 C-1 1 -1 1 0 0 Z " fill="#FCFCFD" transform="translate(80,224)"/>
<path d="M0 0 C2.31 0 4.62 0 7 0 C7 7.26 7 14.52 7 22 C5.02 22.99 5.02 22.99 3 24 C0.89592904 22.30363829 0.06759322 21.45018536 -0.34057617 18.73168945 C-0.32486572 17.86761475 -0.30915527 17.00354004 -0.29296875 16.11328125 C-0.28330078 15.17548828 -0.27363281 14.23769531 -0.26367188 13.27148438 C-0.23853516 12.29501953 -0.21339844 11.31855469 -0.1875 10.3125 C-0.17396484 9.32443359 -0.16042969 8.33636719 -0.14648438 7.31835938 C-0.11112203 4.87835769 -0.06177033 2.43945281 0 0 Z " fill="#FDFDFE" transform="translate(259,195)"/>
<path d="M0 0 C4 2 4 2 6 4 C6.22705078 6.15478516 6.22705078 6.15478516 6.1953125 8.7890625 C6.18886719 9.73007813 6.18242187 10.67109375 6.17578125 11.640625 C6.15902344 12.62546875 6.14226562 13.6103125 6.125 14.625 C6.11597656 15.61757812 6.10695312 16.61015625 6.09765625 17.6328125 C6.07404116 20.08878134 6.04110799 22.54427168 6 25 C4.02 25.66 2.04 26.32 0 27 C0 18.09 0 9.18 0 0 Z " fill="#FDFDFE" transform="translate(167,224)"/>
<path d="M0 0 C1.98 0.66 3.96 1.32 6 2 C6.11632513 5.41637953 6.18728897 8.83224897 6.25 12.25 C6.28351563 13.21808594 6.31703125 14.18617188 6.3515625 15.18359375 C6.45059174 22.36321333 6.45059174 22.36321333 4.109375 25.671875 C2 27 2 27 0 27 C0 18.09 0 9.18 0 0 Z " fill="#FCFCFE" transform="translate(329,192)"/>
<path d="M0 0 C1.98 0.66 3.96 1.32 6 2 C6.11632513 5.41637953 6.18728897 8.83224897 6.25 12.25 C6.28351563 13.21808594 6.31703125 14.18617188 6.3515625 15.18359375 C6.45059174 22.36321333 6.45059174 22.36321333 4.109375 25.671875 C2 27 2 27 0 27 C0 18.09 0 9.18 0 0 Z " fill="#FCFCFE" transform="translate(167,192)"/>
<path d="M0 0 C0.66 0.33 1.32 0.66 2 1 C1.25 3.4375 1.25 3.4375 0 6 C-2.125 6.8125 -2.125 6.8125 -4 7 C-3.6875 4.625 -3.6875 4.625 -3 2 C-2.01 1.34 -1.02 0.68 0 0 Z " fill="#5550B1" transform="translate(116,184)"/>
<path d="M0 0 C0.66 0.33 1.32 0.66 2 1 C1.67 1.33 1.34 1.66 1 2 C1.66 2.66 2.32 3.32 3 4 C1.02 4.33 -0.96 4.66 -3 5 C-3 3.68 -3 2.36 -3 1 C-2.01 0.67 -1.02 0.34 0 0 Z " fill="#605CB6" transform="translate(389,249)"/>
<path d="M0 0 C0.66 0.33 1.32 0.66 2 1 C1.67 1.33 1.34 1.66 1 2 C1.66 2.66 2.32 3.32 3 4 C1.02 4.33 -0.96 4.66 -3 5 C-3 3.68 -3 2.36 -3 1 C-2.01 0.67 -1.02 0.34 0 0 Z " fill="#605CB6" transform="translate(84,249)"/>
</svg>
